<svg width="1039" height="300" viewBox="0 0 1039 300" fill="none" xmlns="http://www.w3.org/2000/svg">
<path d="M218.614 164.525C219.603 159.836 220.123 154.974 220.123 149.991C220.123 111.27 188.73 79.878 150 79.878C111.271 79.878 79.878 111.27 79.878 149.991C79.878 184.62 104.989 213.389 138.001 219.081V239.188C93.9682 233.322 60 195.623 60 149.991C60 100.29 100.295 60 150 60C199.706 60 240.001 100.29 240.001 149.991C240.001 161.343 237.898 172.205 234.062 182.207C229.602 175.733 224.413 169.8 218.614 164.525Z" fill="#02012B"/>
<path d="M150.001 220.103C179.03 220.103 203.938 202.466 214.593 177.326C219.737 182.626 224.234 188.556 227.957 194.991C212.395 221.886 183.312 239.981 150.001 239.981L150.001 220.103Z" fill="#02012B"/>
<path fill-rule="evenodd" clip-rule="evenodd" d="M150.001 240H240.002V239.993C240.002 190.293 199.707 150.002 150.002 150.002C150.001 150.002 150.001 150.002 150.001 150.002V240Z" fill="#B700FF"/>
<path d="M900.57 207.94V92.9473H978.766V111.839H921.105V137.959H968.581V156.851H921.105V189.213H978.766V208.105L900.57 207.94Z" fill="#02012B"/>
<path d="M870.25 207.94V92.9473H890.784V207.94H870.25Z" fill="#02012B"/>
<path d="M768.86 207.94V92.9473H820.936C846.07 92.9473 862.826 109.703 862.826 134.838C862.826 160.793 846.07 177.549 820.936 177.549H789.395V207.94H768.86ZM819.129 158.658C833.092 158.658 842.292 149.458 842.292 135.495C842.292 121.038 833.092 111.839 819.129 111.839H789.395V158.658H819.129Z" fill="#02012B"/>
<path d="M706.402 207.94V111.839H672.068V92.9473H761.434V111.839H726.936V207.94H706.402Z" fill="#02012B"/>
<path d="M668.76 174.596C668.76 194.474 655.947 209.751 628.02 209.751C607.486 209.751 592.865 201.537 583.994 192.995L596.972 178.867C605.843 186.424 615.535 190.86 627.856 190.86C643.791 190.86 648.226 183.303 648.226 176.075C648.226 148.641 584.323 165.068 584.323 124.163C584.323 104.943 598.286 91.144 624.242 91.144C641.984 91.144 656.604 97.7151 666.953 106.586L654.961 121.535C644.612 113.157 634.591 110.036 624.406 110.036C610.607 110.036 604.857 115.621 604.857 122.521C604.857 145.684 668.76 130.406 668.76 174.596Z" fill="#02012B"/>
<path d="M500.789 207.94V92.9473H578.984V111.839H521.323V137.959H568.799V156.851H521.323V189.213H578.984V208.105L500.789 207.94Z" fill="#02012B"/>
<path d="M444.584 210.076C416.657 210.076 399.08 193.648 399.08 167.364V92.9473H419.614V168.843C419.614 182.97 428.978 191.184 444.748 191.184C461.012 191.184 470.375 182.97 470.375 168.843V92.9473H490.91V167.364C490.91 193.648 473.332 210.076 445.405 210.076H444.584Z" fill="#02012B"/>
<path d="M274.532 149.622C274.532 113.81 296.71 90.811 332.522 90.811C368.334 90.811 390.676 113.81 390.676 149.622C390.676 167.035 385.747 179.849 376.384 189.048H393.304V207.94H332.522C296.71 207.94 274.532 185.598 274.532 149.622ZM295.067 149.622C295.067 174.756 308.866 189.048 332.522 189.048C356.013 189.048 370.141 174.756 370.141 149.622C370.141 124.652 356.013 109.703 332.522 109.703C308.866 109.703 295.067 124.652 295.067 149.622Z" fill="#02012B"/>
</svg>
