<svg width="640" height="640" viewBox="0 0 640 640" fill="none" xmlns="http://www.w3.org/2000/svg">
<path fill-rule="evenodd" clip-rule="evenodd" d="M466.377 350.987C468.486 340.983 469.595 330.611 469.595 319.98C469.595 237.377 402.624 170.406 320.001 170.406C237.378 170.406 170.406 237.377 170.406 319.98C170.406 393.857 223.976 455.23 294.402 467.372V510.268C200.465 497.754 128 417.329 128 319.98C128 213.952 213.962 128 320.001 128C426.04 128 512.002 213.952 512.002 319.98C512.002 344.198 507.517 367.37 499.332 388.708C489.817 374.897 478.748 362.239 466.377 350.987ZM320.002 469.553C381.932 469.553 435.067 431.927 457.799 378.296C468.772 389.602 478.366 402.254 486.309 415.98C453.11 473.357 391.065 511.959 320.002 511.959L320.002 469.553Z" fill="white"/>
<path fill-rule="evenodd" clip-rule="evenodd" d="M320.002 512H512.004V511.985C512.004 405.958 426.042 320.005 320.003 320.005C320.003 320.005 320.002 320.005 320.002 320.005V512Z" fill="white"/>
</svg>
